<svg xmlns="http://www.w3.org/2000/svg" xmlns:xlink="http://www.w3.org/1999/xlink" version="1.1" width="256" height="256" viewBox="0 0 256 256" xml:space="preserve">

<defs>
</defs>
<g style="stroke: none; stroke-width: 0; stroke-dasharray: none; stroke-linecap: butt; stroke-linejoin: miter; stroke-miterlimit: 10; fill: none; fill-rule: nonzero; opacity: 1;" transform="translate(1.4065934065934016 1.4065934065934016) scale(2.81 2.81)" >
	<path d="M 45 82.119 H 1 c -0.416 0 -0.788 -0.257 -0.935 -0.646 c -0.147 -0.39 -0.039 -0.828 0.273 -1.104 l 7.103 -6.276 c 2.336 -2.065 2.586 -5.56 0.568 -7.957 C 2.77 59.912 0 52.603 0 45 C 0 24.532 20.187 7.88 45 7.88 c 24.813 0 45 16.652 45 37.12 S 69.813 82.119 45 82.119 z M 3.642 80.119 H 45 c 23.71 0 43 -15.754 43 -35.119 S 68.71 9.88 45 9.88 C 21.29 9.88 2 25.635 2 45 c 0 7.126 2.607 13.989 7.539 19.85 c 2.722 3.233 2.382 7.952 -0.774 10.742 L 3.642 80.119 z" style="stroke: none; stroke-width: 1; stroke-dasharray: none; stroke-linecap: butt; stroke-linejoin: miter; stroke-miterlimit: 10; fill: rgb(0,0,0); fill-rule: nonzero; opacity: 1;" transform=" matrix(1 0 0 1 0 0) " stroke-linecap="round" />
</g>
</svg>